<svg width="51" height="51" viewBox="0 0 51 51" fill="none" xmlns="http://www.w3.org/2000/svg">
<g id="icn_change profilepic">
<circle id="Oval" cx="25.5" cy="25.5" r="25.5" fill="#EE5C4D"/>
<g id="Add / Rectangular Copy 27">
<mask id="mask0_438_9145" style="mask-type:alpha" maskUnits="userSpaceOnUse" x="13" y="15" width="25" height="21">
<path id="Combined Shape" fill-rule="evenodd" clip-rule="evenodd" d="M30.9869 18.5683H34.4501C36.0768 18.5683 37.4003 19.8926 37.4003 21.5202V32.4649C37.4003 34.0925 36.0768 35.4167 34.4501 35.4167H16.5506C14.9238 35.4167 13.6003 34.0925 13.6003 32.4649V21.5202C13.6003 19.8925 14.9238 18.5683 16.5506 18.5683H20.0137L21.7172 16.0118C21.8954 15.7441 22.1956 15.5834 22.5171 15.5834H28.4836C28.8051 15.5834 29.1052 15.7442 29.2835 16.0118L30.9869 18.5683ZM34.4501 33.4928C35.0166 33.4928 35.4776 33.0317 35.4776 32.4649H35.4775V21.5202C35.4775 20.9534 35.0166 20.4922 34.4501 20.4922H30.4724C30.1509 20.4922 29.8508 20.3315 29.6725 20.0639L27.969 17.5073H23.0316L21.3282 20.0639C21.1499 20.3315 20.8497 20.4922 20.5282 20.4922H16.5506C15.9841 20.4922 15.5232 20.9534 15.5232 21.5202V32.4649C15.5232 33.0317 15.9841 33.4928 16.5506 33.4928H34.4501ZM25.5003 21.5533C22.7769 21.5533 20.5613 23.7702 20.5613 26.4951C20.5613 29.22 22.777 31.4368 25.5003 31.4368C28.2237 31.4368 30.4394 29.2199 30.4394 26.4951C30.4394 23.7702 28.2238 21.5533 25.5003 21.5533Z" fill="white"/>
</mask>
<g mask="url(#mask0_438_9145)">
<g id="&#226;&#134;&#179;&#240;&#159;&#142;&#168;Color">
<rect id="Rectangular" x="-112.4" y="13.6" width="150" height="24" fill="black"/>
<mask id="mask1_438_9145" style="mask-type:alpha" maskUnits="userSpaceOnUse" x="-113" y="13" width="151" height="25">
<rect id="Rectangular_2" x="-112.4" y="13.6" width="150" height="24" fill="white"/>
</mask>
<g mask="url(#mask1_438_9145)">
<rect id="Rectangle" x="13.1202" y="13.12" width="24.96" height="26.4" fill="white"/>
</g>
</g>
</g>
</g>
</g>
</svg>
